<svg preserveAspectRatio="none" overflow="visible" style="display: block;" width="17" height="17" viewBox="0 0 17 17" fill="none" xmlns="http://www.w3.org/2000/svg">
<g id="sparkles" clip-path="url(#clip0_0_4)">
<path id="Vector" d="M14.1672 1.41748V2.83409M14.1672 2.83409V4.25071M14.1672 2.83409H15.5839M14.1672 2.83409H12.7504M7.80365 1.99436C7.83401 1.83187 7.92024 1.68512 8.04741 1.57952C8.17458 1.47391 8.33469 1.4161 8.5 1.4161C8.66531 1.4161 8.82542 1.47391 8.95259 1.57952C9.07977 1.68512 9.166 1.83187 9.19635 1.99436L9.94087 5.93112C9.99374 6.211 10.1298 6.46845 10.3312 6.66986C10.5326 6.87127 10.7901 7.00729 11.07 7.06016L15.0073 7.80459C15.1698 7.83494 15.3165 7.92115 15.4222 8.04831C15.5278 8.17547 15.5856 8.33556 15.5856 8.50085C15.5856 8.66614 15.5278 8.82623 15.4222 8.95339C15.3165 9.08055 15.1698 9.16677 15.0073 9.19711L11.07 9.94154C10.7901 9.99442 10.5326 10.1304 10.3312 10.3318C10.1298 10.5333 9.99374 10.7907 9.94087 11.0706L9.19635 15.0073C9.166 15.1698 9.07977 15.3166 8.95259 15.4222C8.82542 15.5278 8.66531 15.5856 8.5 15.5856C8.33469 15.5856 8.17458 15.5278 8.04741 15.4222C7.92024 15.3166 7.83401 15.1698 7.80365 15.0073L7.05913 11.0706C7.00626 10.7907 6.87022 10.5333 6.66879 10.3318C6.46736 10.1304 6.20988 9.99442 5.92996 9.94154L1.99273 9.19711C1.83022 9.16677 1.68345 9.08055 1.57783 8.95339C1.47222 8.82623 1.4144 8.66614 1.4144 8.50085C1.4144 8.33556 1.47222 8.17547 1.57783 8.04831C1.68345 7.92115 1.83022 7.83494 1.99273 7.80459L5.92996 7.06016C6.20988 7.00729 6.46736 6.87127 6.66879 6.66986C6.87022 6.46845 7.00626 6.211 7.05913 5.93112L7.80365 1.99436ZM4.24969 14.167C4.24969 14.9494 3.61538 15.5836 2.83291 15.5836C2.05044 15.5836 1.41613 14.9494 1.41613 14.167C1.41613 13.3846 2.05044 12.7504 2.83291 12.7504C3.61538 12.7504 4.24969 13.3846 4.24969 14.167Z" stroke-width="2" stroke-linecap="round" stroke="white"/>
</g>
<defs>
<clipPath id="clip0_0_4">
<rect width="17" height="17" fill="white"/>
</clipPath>
</defs>
</svg>
